<svg xmlns="http://www.w3.org/2000/svg" viewBox="0 0 32 32" fill="none">
  <path d="M16 3.4c2.8 0 4.9 2.3 4.9 5.1v2.2l1.9-1.1c2.5-1.4 5.5-.5 6.8 1.8 1.4 2.4.6 5.4-1.8 6.8l-1.9 1.1 1.9 1.1c2.4 1.4 3.2 4.4 1.8 6.8-1.3 2.3-4.3 3.2-6.8 1.8l-1.9-1.1v2.2c0 2.8-2.1 5.1-4.9 5.1s-4.9-2.3-4.9-5.1v-2.2l-1.9 1.1c-2.5 1.4-5.5.5-6.8-1.8-1.4-2.4-.6-5.4 1.8-6.8l1.9-1.1-1.9-1.1C1.8 16.8 1 13.8 2.4 11.4c1.3-2.3 4.3-3.2 6.8-1.8l1.9 1.1V8.5c0-2.8 2.1-5.1 4.9-5.1Z" stroke="currentColor" stroke-linejoin="round" stroke-width="1.8"/>
  <path d="M16 9.1v13.8M10 12.6l12 6.8M10 19.4l12-6.8" stroke="currentColor" stroke-linecap="round" stroke-width="1.55"/>
</svg>
