<svg xmlns="http://www.w3.org/2000/svg" width="1200" height="630" viewBox="0 0 1200 630"><rect width="1200" height="630" fill="#f7f4ee"/><path d="M72 86h1056M72 550h1056" stroke="#d9d2c8"/><g transform="translate(77 100) scale(1.1)">
  <title>Downright</title>
  <defs>
    <linearGradient id="fav-tile" x1="16" y1="0" x2="16" y2="32" gradientUnits="userSpaceOnUse">
      <stop offset="0%" stop-color="#f8f5ee"/>
      <stop offset="100%" stop-color="#e3ded5"/>
    </linearGradient>
    <linearGradient id="fav-groove" x1="16" y1="4" x2="16" y2="28" gradientUnits="userSpaceOnUse">
      <stop offset="0%" stop-color="#0f1b28"/>
      <stop offset="100%" stop-color="#18283a"/>
    </linearGradient>
  </defs>
  <style>
    .fav-accent { fill: #307afe; }
    @media (prefers-color-scheme: dark) {
      .fav-accent { fill: #6ea8ff; }
    }
  </style>

  <!-- Squircle Base (Tactile Cream Paper) -->
  <rect width="32" height="32" rx="7.2" fill="url(#fav-tile)"/>
  <rect x="0.5" y="0.5" width="31" height="31" rx="6.7" stroke="#ffffff" stroke-opacity="0.95" stroke-width="0.9"/>
  <rect x="0.5" y="0.5" width="31" height="31" rx="6.7" stroke="#c4bcaf" stroke-opacity="0.35" stroke-width="0.9"/>

  <!-- Left Vertical Trench -->
  <rect x="6" y="5.2" width="3.4" height="21.6" rx="1.7" fill="url(#fav-groove)"/>

  <!-- Outer D Horseshoe Groove -->
  <path d="M11.4 5.2h5.6c5.5 0 9.2 3.6 9.2 10.8s-3.7 10.8-9.2 10.8h-5.6v-3.8h5.6c3.2 0 5.4-2.1 5.4-7s-2.2-7-5.4-7h-5.6V5.2Z" fill="url(#fav-groove)"/>

  <!-- 3 Tactile Pill Rules on Cream Face -->
  <rect x="11.6" y="10.8" width="8.2" height="2.5" rx="1.25" fill="#aba399"/>
  <rect x="12" y="11.1" width="7.4" height="0.8" rx="0.4" fill="#ffffff" fill-opacity="0.65"/>

  <rect class="fav-accent" x="11.6" y="14.8" width="8.2" height="2.5" rx="1.25"/>
  <rect x="12" y="15.1" width="7.4" height="0.8" rx="0.4" fill="#ffffff" fill-opacity="0.65"/>

  <rect x="11.6" y="18.8" width="8.2" height="2.5" rx="1.25" fill="#aba399"/>
  <rect x="12" y="19.1" width="7.4" height="0.8" rx="0.4" fill="#ffffff" fill-opacity="0.65"/>
</g><text x="116" y="123" fill="#292522" font-family="Arial,sans-serif" font-size="22" font-weight="700">Downright</text><rect x="72" y="174" width="132" height="30" rx="15" fill="#307afe"/><text x="138" y="195" fill="#f7f4ee" font-family="Arial,sans-serif" font-size="13" font-weight="700" text-anchor="middle" letter-spacing="1.8">GUIDE</text><text x="72" y="300" fill="#181513" font-family="Georgia,serif" font-size="72">Preview Markdown</text><text x="72" y="380" fill="#181513" font-family="Georgia,serif" font-size="72">on a Mac.</text><text x="76" y="458" fill="#685f56" font-family="Arial,sans-serif" font-size="24">Finder for the glance. Downright for the document.</text><rect x="730" y="132" width="398" height="300" rx="18" fill="#fffdfa" stroke="#d9d2c8"/><rect x="754" y="160" width="350" height="34" rx="8" fill="#d9d2c8" opacity=".46"/><circle cx="776" cy="177" r="5" fill="#307afe"/><path d="M770 234h208M770 260h282M770 286h246M770 342h176M770 368h278" stroke="#8b8178" stroke-width="4" stroke-linecap="round" opacity=".72"/><path d="M770 418h96" stroke="#307afe" stroke-width="5" stroke-linecap="round"/><text x="1080" y="595" fill="#8b8178" font-family="monospace" font-size="14" text-anchor="end">downright.cc</text></svg>